<svg xmlns="http://www.w3.org/2000/svg" viewBox="0 0 486.21 308.24"><defs><style>.cls-1{fill:#555e63;}.cls-2{fill:#f8af2c;}</style></defs><title>logo</title><g id="Capa_2" data-name="Capa 2"><g id="Capa_1-2" data-name="Capa 1"><path class="cls-1" d="M60,263.82l6.29.16q-1.93,15.28-10.58,23.63T33.17,296Q19,296,9.52,286.47T0,263a32.18,32.18,0,0,1,9.71-23.77,32.66,32.66,0,0,1,23.93-9.64q14,0,23.35,9.45,6.48,6.54,9.17,18.21l-8.81.59a19.6,19.6,0,0,1-15.25-6.12,11.94,11.94,0,0,0-8.93-3.5,13,13,0,0,0-9.93,4.17A14.89,14.89,0,0,0,19.32,263a14.28,14.28,0,0,0,3.85,10.26,12.8,12.8,0,0,0,9.73,4.06,12.81,12.81,0,0,0,9.52-3.57,12.32,12.32,0,0,0,1.59-2C47.45,266.43,53.7,263.65,60,263.82Z"/><path class="cls-1" d="M105.15,231.28A29.55,29.55,0,0,1,127,240.55a31.46,31.46,0,0,1-22.38,53.67,31.48,31.48,0,0,1-22.2-53.81A31.18,31.18,0,0,1,105.15,231.28Zm-.53,17.66a12.43,12.43,0,0,0-9.35,4,14.19,14.19,0,0,0,0,19.5,12.87,12.87,0,0,0,18.71,0A14.35,14.35,0,0,0,114,253,12.45,12.45,0,0,0,104.62,248.94Z"/><path class="cls-1" d="M158.27,294.37a12.71,12.71,0,0,1-12.87-12.56V254.32q0-10.53,6.46-16.86t17.21-6.33q10.71,0,16.38,6.14T191.13,255v39.42h-5.94a12.71,12.71,0,0,1-12.87-12.56V255q0-5.65-4.13-5.65-4,0-4,5.65v39.42Z"/><path class="cls-1" d="M409.37,263.56v16.28H403.9v14.69h-9.5a9.34,9.34,0,0,1-9.5-9.19v-30q0-11.39,6.43-17.69t18.09-6.31q11.24,0,16.61,5.72t5.38,17.65v39.87h-9.49a9.35,9.35,0,0,1-9.51-9.19V255.88c0-2.41-.29-4.08-.89-5a3.47,3.47,0,0,0-3.18-1.4q-4.44,0-4.44,6.42v7.68Z"/><path class="cls-1" d="M454.43,248.53v46H446.6a11,11,0,0,1-11.06-11V231.62h24.24q11.09,0,17.17,5.44a19.81,19.81,0,0,1,6.8,15.44q0,9.54-8.43,16.08l10.89,25.95H473.56a11.08,11.08,0,0,1-10.1-6.48l-6.24-13.8v-13.4A2.86,2.86,0,0,1,460,258h0c4,0,4.65-1.62,4.65-5q0-4.47-6.89-4.47Z"/><path class="cls-1" d="M225.92,276.3h-1.06a10,10,0,0,1-4.36-.62c-.71-.42-1.06-1.29-1.06-2.62a2.84,2.84,0,0,1,1-2.5,6.28,6.28,0,0,1,3.54-.74H236.3V263.2a7.46,7.46,0,0,0-7.46-7.47h-2.92a8.39,8.39,0,0,1-4.12-.72,2.78,2.78,0,0,1-1.16-2.57q0-3.15,4.87-3.15h4.33a16.58,16.58,0,0,1-.34-18.16h-8.35q-9.45,0-14.66,5t-5.22,14.09V275q0,9.4,5.52,14.38t15.94,5h14.78v-6.48A11.59,11.59,0,0,0,225.92,276.3Z"/><path class="cls-1" d="M374.54,238.5a24.57,24.57,0,0,0-18-7.2,28.41,28.41,0,0,0-11.48,2.42,26.24,26.24,0,0,0-9.26,6.58,22.45,22.45,0,0,0-4.66,8.11,38,38,0,0,0-1.37,11.15v19.81a16.63,16.63,0,0,1,9.89,28.73h0a11,11,0,0,0,11-11V257.4q0-6.07,4.89-6.08t4.84,4.43q0,4.85-6.33,4.84v15.24a3.24,3.24,0,0,0,3.19,3.24q12,0,18-5.92,6.54-6.43,6.54-16.78A24.13,24.13,0,0,0,374.54,238.5Z"/><path class="cls-1" d="M327.32,282.93a12.62,12.62,0,0,0-10,4.93c-4.34-.69-10.3-2.45-13-7-5.77-9.74-8.31-14.5-8.31-14.5l20.51-35.06h-24l-7.4,16.37L282,241.94a20.85,20.85,0,0,0-18.18-10.64H252.86a12.65,12.65,0,1,0,.91,16.55c3.7.49,8.31,1.8,10.34,5.29,3.65,6.27,7.94,13.8,7.94,13.8l-21.66,36.44h24.26l8.2-17.48,3.75,6.76a20.84,20.84,0,0,0,18.22,10.72h12.55a12.65,12.65,0,1,0,9.95-20.45Zm0,15.67H306.47c-8.59,0-13.59-10.09-13.59-10.09l-23.8-42.69A8.43,8.43,0,0,0,262,242H245a3.19,3.19,0,1,1,0-6.37h20.1c7.37,0,9.83,5.3,9.83,5.3l25.62,45.41s3.74,5.62,10.35,5.31c3.87-.18,16.43,0,16.43,0a3.49,3.49,0,1,1,0,7Z"/><path class="cls-2" d="M369.6,174.92A40.24,40.24,0,0,0,332,132.16a40.71,40.71,0,0,0-5.85.06l4.32,6.17a33.57,33.57,0,1,1-34.35,26.11L291,162.72H195.4a23.81,23.81,0,1,0-1.13,27.69h99c4.79,12.16,19.72,21.18,33.6,22.08A40.25,40.25,0,0,0,369.6,174.92Z"/><path class="cls-2" d="M154.28,209.47A40.25,40.25,0,0,0,210,197.92a27.08,27.08,0,0,0,2.36-4.13h-7.2a33,33,0,0,1-27,15.28,33.55,33.55,0,1,1,21.46-58.33l4.07-3.57L250.91,64a23.81,23.81,0,1,0-23.52-14.65l-48.87,86.06c-12.94-1.84-28.16,6.69-35.79,18.31A40.26,40.26,0,0,0,154.28,209.47Z"/><path class="cls-2" d="M231,4.19a40.15,40.15,0,0,0-15.21,59l3.16-6.84A33.57,33.57,0,1,1,258.71,73l1,5.32,47.9,82.78a23.83,23.83,0,1,0,24.53-12.89L282.6,62.53c8.13-10.24,8.45-27.68,2.28-40.14A40.24,40.24,0,0,0,231,4.19Z"/></g></g></svg>